# xmcd
# 
# Track frame offsets:
#     150
#     20678
#     34761
#     70961
#     98183
#     118428
#     142184
#     157646
#     165334
#     240430
# 
# Disc length: 3442
# 
# Revision: 4
# Processed by: cddbd v1.5.2PL0 Copyright (c) Steve Scherf et al.
# Submitted via: fre:ac v1.0.27
# 
DISCID=800d700a
DTITLE=Black Mountain - In The Future
DYEAR=2008
DGENRE=Atmospheric/Psychedelic Rock
TTITLE0=Stormy High
TTITLE1=Angels
TTITLE2=Tyrants
TTITLE3=Wucan
TTITLE4=Stay Free
TTITLE5=Queens Will Play
TTITLE6=Evil Ways
TTITLE7=Wild Wind
TTITLE8=Bright Lights
TTITLE9=Night walks
EXTD=
EXTT0=
EXTT1=
EXTT2=
EXTT3=
EXTT4=
EXTT5=
EXTT6=
EXTT7=
EXTT8=
EXTT9=
PLAYORDER=
